<?xml version="1.0"?>
<svg xmlns="http://www.w3.org/2000/svg" viewBox="0 0 512 512" width="512" height="512"><g id="Cow_Tracking" data-name="Cow Tracking"><g id="Outline"><path d="M496,240V344a8,8,0,0,0,16,0V240a48.054,48.054,0,0,0-44.644-47.87,39.929,39.929,0,0,0-33.442-10.367l-54.49,8.38a8,8,0,1,0,2.431,15.814l3.517-.541c2.56,4.388,7.182,43.918,46.628,49.975V280A40.068,40.068,0,0,0,464,319.2V488a8.009,8.009,0,0,1-8,8h-8.76l-7.28-72.8c-.583-5.838-4.4-6.008-22.059-16.638A74.863,74.863,0,0,1,384,344a8,8,0,0,0-16,0,90.246,90.246,0,0,0,.513,9.543L239.071,384H224v-8a8,8,0,0,0-8-8c-19.321,0,5.357,37.957-21.657,64.971-4.125,4.123-1.558,5.139-2.343,55.029a8.009,8.009,0,0,1-8,8h-8V384a8,8,0,0,0-16,0v14.831a27.993,27.993,0,0,1-19.795-23.545c-.067-.571.851,4.3-13.835-71.286h18.2A56.086,56.086,0,0,0,200,352h24a32,32,0,0,0,0-64H207.2A40.071,40.071,0,0,0,168,256H144a8,8,0,0,0,0,16h24a24.027,24.027,0,0,1,24,24,8,8,0,0,0,8,8h24a16,16,0,0,1,0,32H200a40.045,40.045,0,0,1-40-40,8,8,0,0,0-8-8H123.26c-3.576-13.77-1.674-20.949-8.451-23.491C48.143,239.7,50.733,240,48,240H24a8.009,8.009,0,0,1-8-8V220.944c29.019-14.664,28.039-13.67,29.657-15.287l38.114-38.115L96,165.8V168a8,8,0,0,0,16,0V152c0-11.229,29.28-7.361,36.336-8-3.169,6.177-8.12,12.866-14.878,15.13a8,8,0,0,0,5.084,15.171,33.185,33.185,0,0,0,5.833-2.612c17.425,16.633,17.945,19.883,22.988,20.286,25.194,2.007,37.933,3.046,38.436,3.046,10.134,0,10.8-15.162.628-15.976l-34.853-2.785-15.2-15.2a68.583,68.583,0,0,0,11.389-23.119A8,8,0,0,0,160,128H128c-20.477,0-30.564,10.791-31.853,21.611L79.5,151.99c-19.942-.22-33.733-13.535-33.847-13.647a8,8,0,0,0-11.314,11.314,70.246,70.246,0,0,0,28.69,16L35.261,193.425,4.422,208.845C-2.595,212.353.908,220.44,0,232a24.027,24.027,0,0,0,24,24H46.549L105,277.919l19.352,99.548A44,44,0,0,0,160,415.268V496h-8a8,8,0,0,0,0,16h32a24.027,24.027,0,0,0,24-24V441.813A62.169,62.169,0,0,0,224,400c21.323.355,9.908,1.568,62.828-10.8a83.773,83.773,0,0,0,14.757,23.063l-9.163,4.582C284.91,420.6,287.58,432,296.006,432c3.226,0,3.946-1.318,18.317-8.219a83.809,83.809,0,0,0,19.522,10.639l-5,10a8,8,0,0,0,14.31,7.156l6.414-12.828a83.191,83.191,0,0,0,21.339.954c4.751,7.619,5.373,16.3,13.1,16.3a8.009,8.009,0,0,0,7.149-11.58l-3.867-7.734a83.947,83.947,0,0,0,27.126-13.53l10.036,5.74,6.71,67.1H424a8,8,0,0,0,0,16h32a24.027,24.027,0,0,0,24-24c-.427-279.778,1.029-267.407-1.195-276.355A32.023,32.023,0,0,1,496,240ZM302.7,385.465l68.914-16.215a91.051,91.051,0,0,0,28.756,44.184A67.987,67.987,0,0,1,302.7,385.465ZM464,302.624A24.039,24.039,0,0,1,448,280V248a8,8,0,0,0-8-8,36.35,36.35,0,0,1-34.529-24.888l-4.055-12.163,34.929-5.372A24.011,24.011,0,0,1,464,221.3Z"/><path d="M504.167,368a8.167,8.167,0,1,0,8.166,8.167A8.166,8.166,0,0,0,504.167,368Z"/><path d="M302.708,284.359C306.354,278.75,392,146.393,392,96c0-71.937-76.371-117.871-139.641-85.528a8,8,0,1,0,7.283,14.246C312.488-2.3,376,36.191,376,96c0,34.778-52.676,125.7-80,169.136C268.676,221.7,216,130.778,216,96a79.637,79.637,0,0,1,5.451-29.09,8,8,0,1,0-14.9-5.82A95.582,95.582,0,0,0,200,96c0,50.393,85.646,182.75,89.292,188.359A8,8,0,0,0,302.708,284.359Z"/><path d="M296,152a56,56,0,1,0-56-56A56.063,56.063,0,0,0,296,152Zm0-96a40,40,0,1,1-40,40A40.045,40.045,0,0,1,296,56Z"/><circle cx="232" cy="40" r="8"/><circle cx="80" cy="200" r="8"/><path d="M360,320h16a24,24,0,0,0,0-48H360a24,24,0,0,0,0,48Zm0-32h16a8,8,0,0,1,0,16H360a8,8,0,0,1,0-16Z"/></g></g></svg>
