<?xml version="1.0" encoding="iso-8859-1"?>
<!-- Generator: Adobe Illustrator 19.0.0, SVG Export Plug-In . SVG Version: 6.00 Build 0)  -->
<svg version="1.1" id="Capa_1" xmlns="http://www.w3.org/2000/svg" xmlns:xlink="http://www.w3.org/1999/xlink" x="0px" y="0px"
	 viewBox="0 0 512 512" style="enable-background:new 0 0 512 512;" xml:space="preserve">
<polygon style="fill:#1689FC;" points="362,90 362,422 332,452 30,452 0,422 0,90 30,60 332,60 "/>
<polygon style="fill:#136EF1;" points="362,90 362,422 332,452 181,452 181,60 332,60 "/>
<rect x="30" y="60" style="fill:#E5E5E5;" width="302" height="392"/>
<rect x="181" y="60" style="fill:#D9D9D9;" width="151" height="392"/>
<g>
	<path style="fill:#1689FC;" d="M362,422v45c0,24.901-20.099,45-45,45H45c-24.901,0-45-20.099-45-45v-45H362z"/>
	<path style="fill:#1689FC;" d="M362,45v45H0V45C0,20.099,20.099,0,45,0h272C341.901,0,362,20.099,362,45z"/>
</g>
<g>
	<path style="fill:#136EF1;" d="M362,422v45c0,24.901-20.099,45-45,45H181v-90H362z"/>
	<path style="fill:#136EF1;" d="M362,45v45H181V0h136C341.901,0,362,20.099,362,45z"/>
</g>
<g>
	<path style="fill:#A8AFF1;" d="M302,167c0,8.399-6.599,15-15,15H75c-8.401,0-15-6.601-15-15c0-8.401,6.599-15,15-15h212
		C295.401,152,302,158.599,302,167z"/>
	<path style="fill:#A8AFF1;" d="M247.7,257c0,8.399-6.601,15-15,15H75c-8.401,0-15-6.601-15-15c0-8.401,6.599-15,15-15h157.7
		C241.099,242,247.7,248.599,247.7,257z"/>
	<path style="fill:#A8AFF1;" d="M272,347c0,8.399-6.599,15-15,15H75c-8.401,0-15-6.601-15-15c0-8.401,6.599-15,15-15h182
		C265.401,332,272,338.599,272,347z"/>
</g>
<g>
	<path style="fill:#97A1ED;" d="M232.7,272H181v-30h51.7c8.399,0,15,6.599,15,15C247.7,265.399,241.099,272,232.7,272z"/>
	<path style="fill:#97A1ED;" d="M272,347c0,8.399-6.599,15-15,15h-76v-30h76C265.401,332,272,338.599,272,347z"/>
	<path style="fill:#97A1ED;" d="M302,167c0,8.399-6.599,15-15,15H181v-30h106C295.401,152,302,158.599,302,167z"/>
</g>
<path style="fill:#896748;" d="M498.951,165.344l-10.501,10.8l-21.299-9l-33.6-33.6l-9.001-21.301l10.801-10.499
	c17.399-17.401,45.899-17.401,63.6,0C516.35,119.445,516.35,147.943,498.951,165.344z"/>
<path style="fill:#FEA832;" d="M327.951,336.344c-1.8,1.8-3.6,2.999-6,3.6l-63.6,21.301c-5.099,1.8-11.1,0.298-15.3-3.6
	c-3.9-3.9-5.4-9.901-3.6-15.3l21.301-63.6c0.599-2.401,1.8-4.2,3.6-6l42.299,12.299l13.2,13.2L327.951,336.344z"/>
<path style="fill:#FE9923;" d="M327.951,336.344c-1.8,1.8-3.6,2.999-6,3.6l-63.6,21.301c-5.099,1.8-11.1,0.298-15.3-3.6
	l68.101-68.101l8.699,8.699L327.951,336.344z"/>
<path style="fill:#73553A;" d="M498.951,165.344l-10.501,10.8l-21.299-9l-16.8-16.8l48.6-48.6
	C516.35,119.445,516.35,147.943,498.951,165.344z"/>
<polygon style="fill:#FD003A;" points="488.45,176.143 327.951,336.344 264.351,272.744 424.55,112.243 "/>
<polygon style="fill:#E50027;" points="488.45,176.143 327.951,336.344 296.151,304.544 456.65,144.343 "/>
<g>
</g>
<g>
</g>
<g>
</g>
<g>
</g>
<g>
</g>
<g>
</g>
<g>
</g>
<g>
</g>
<g>
</g>
<g>
</g>
<g>
</g>
<g>
</g>
<g>
</g>
<g>
</g>
<g>
</g>
</svg>
